<svg xmlns="http://www.w3.org/2000/svg" width="512" height="512" viewBox="0 0 635.135 638.275">
<rect width="100%" height="100%" fill="none"/>
<circle cx="380.477" cy="54.658" r="10.639" fill="#FFFFFF"/>
<circle cx="254.549" cy="54.857" r="10.530" fill="#FFFFFF"/>
<circle cx="124.977" cy="126.526" r="24.392" fill="#FFFFFF"/>
<circle cx="380.605" cy="126.526" r="24.101" fill="#FFFFFF"/>
<circle cx="510.477" cy="126.526" r="24.256" fill="#FFFFFF"/>
<circle cx="254.009" cy="126.930" r="24.433" fill="#FFFFFF"/>
<circle cx="246.460" cy="247.766" r="44.074" fill="#FFFFFF"/>
<circle cx="389.315" cy="248.168" r="44.599" fill="#FFFFFF"/>
<circle cx="125.513" cy="253.875" r="23.559" fill="#FFFFFF"/>
<circle cx="510.342" cy="254.198" r="23.375" fill="#FFFFFF"/>
<circle cx="580.477" cy="254.658" r="10.639" fill="#FFFFFF"/>
<circle cx="54.549" cy="254.857" r="10.530" fill="#FFFFFF"/>
<circle cx="54.554" cy="383.718" r="10.226" fill="#FFFFFF"/>
<circle cx="125.093" cy="383.860" r="23.510" fill="#FFFFFF"/>
<circle cx="580.477" cy="383.918" r="10.338" fill="#FFFFFF"/>
<circle cx="509.970" cy="384.135" r="23.418" fill="#FFFFFF"/>
<circle cx="246.308" cy="389.933" r="44.573" fill="#FFFFFF"/>
<circle cx="388.983" cy="390.222" r="44.048" fill="#FFFFFF"/>
<circle cx="381.127" cy="511.448" r="24.521" fill="#FFFFFF"/>
<circle cx="254.603" cy="511.806" r="24.232" fill="#FFFFFF"/>
<circle cx="124.977" cy="511.885" r="24.562" fill="#FFFFFF"/>
<circle cx="510.477" cy="511.901" r="24.433" fill="#FFFFFF"/>
<circle cx="254.554" cy="583.718" r="10.226" fill="#FFFFFF"/>
<circle cx="380.477" cy="583.918" r="10.338" fill="#FFFFFF"/>
</svg>